<svg width="22" height="23" viewBox="0 0 22 23" fill="none" xmlns="http://www.w3.org/2000/svg">
<path opacity="0.75" d="M20.4195 2.08928C20.2344 1.90207 20.014 1.75355 19.7709 1.65238C19.5279 1.55122 19.2672 1.49942 19.0039 1.5H13.5161C13.1561 1.50068 12.8109 1.64328 12.5554 1.89687L1.58471 12.8654C1.21036 13.2405 1.00012 13.7488 1.00012 14.2787C1.00012 14.8087 1.21036 15.317 1.58471 15.6921L6.80779 20.9152C7.183 21.2897 7.69147 21.5 8.2216 21.5C8.75172 21.5 9.26019 21.2897 9.6354 20.9152L20.6017 9.95114C20.8557 9.69604 20.9989 9.35095 20.9999 8.99089V3.49996C21.0015 3.23809 20.951 2.97851 20.8514 2.73633C20.7517 2.49414 20.6049 2.27419 20.4195 2.08928V2.08928ZM16.7142 7.21415C16.4317 7.21415 16.1555 7.13037 15.9206 6.9734C15.6857 6.81643 15.5026 6.59332 15.3945 6.33229C15.2863 6.07126 15.258 5.78403 15.3132 5.50692C15.3683 5.22981 15.5043 4.97527 15.7041 4.77549C15.9039 4.5757 16.1584 4.43965 16.4356 4.38453C16.7127 4.32941 16.9999 4.3577 17.2609 4.46582C17.522 4.57394 17.7451 4.75704 17.902 4.99196C18.059 5.22688 18.1428 5.50308 18.1428 5.78561C18.1428 6.16449 17.9923 6.52784 17.7244 6.79574C17.4565 7.06364 17.0931 7.21415 16.7142 7.21415Z" stroke="#FC8019" stroke-width="1.5"/>
</svg>
