<svg width="27" height="27" viewBox="0 0 27 27" fill="none" xmlns="http://www.w3.org/2000/svg">
<path d="M17.1686 2.47654C18.9529 2.95539 20.5798 3.89512 21.8861 5.20142C23.1924 6.50771 24.1321 8.13462 24.611 9.91886M16.0773 6.53958C17.1504 6.82458 18.1291 7.38819 18.9142 8.1733C19.6993 8.95841 20.2629 9.93712 20.5479 11.0102M8.37197 13.6269C9.45442 15.8622 11.262 17.6651 13.5001 18.7418C13.6652 18.82 13.8478 18.8538 14.0299 18.84C14.212 18.8262 14.3874 18.7651 14.5388 18.6629L17.8261 16.4671C17.9713 16.3686 18.1391 16.3084 18.3139 16.2924C18.4886 16.2763 18.6646 16.3047 18.8254 16.375L24.9791 19.018C25.1894 19.1055 25.3652 19.2597 25.4792 19.4569C25.5933 19.6541 25.6393 19.8834 25.6103 20.1093C25.4152 21.6316 24.6722 23.0307 23.5202 24.0448C22.3682 25.0588 20.8861 25.6184 19.3514 25.6187C14.6086 25.6187 10.0601 23.7347 6.70645 20.3811C3.35281 17.0274 1.46875 12.4789 1.46875 7.73613C1.4691 6.20138 2.02865 4.71934 3.04272 3.56732C4.05678 2.41531 5.45586 1.67226 6.97817 1.47722C7.20412 1.44819 7.43335 1.49425 7.63055 1.6083C7.82776 1.72234 7.982 1.89805 8.06954 2.10837L10.7125 8.27524C10.7812 8.43349 10.81 8.60621 10.7962 8.77818C10.7824 8.95016 10.7266 9.11611 10.6336 9.26141L8.43771 12.6013C8.33995 12.7523 8.28257 12.9259 8.27106 13.1055C8.25955 13.2851 8.29429 13.4646 8.37197 13.6269Z" stroke="#0152A8" stroke-linecap="round" stroke-linejoin="round"/>
</svg>
