<svg width="22" height="20" viewBox="0 0 22 20" fill="none" xmlns="http://www.w3.org/2000/svg">
<path opacity="0.75" d="M4.55116 19.8492L4.84498 19.4446C4.80113 19.4128 4.76707 19.3693 4.74668 19.3191C4.72629 19.2688 4.72038 19.2139 4.72962 19.1605L4.72974 19.1598L5.80293 12.9061L5.84739 12.647L5.65918 12.4635L1.11663 8.03472L1.1166 8.03468C1.06108 7.98056 1.02931 7.90661 1.02829 7.82908C1.02726 7.75185 1.05683 7.67735 1.11051 7.62185C1.15613 7.57557 1.21408 7.54639 1.27599 7.53755L1.27719 7.53737L7.55565 6.62491L7.81584 6.58709L7.93215 6.35129L10.7376 0.663776C10.7377 0.663467 10.7379 0.66316 10.7381 0.662852C10.8114 0.517413 10.9877 0.459775 11.1299 0.529955L11.1305 0.530241C11.1872 0.558171 11.2332 0.604162 11.2611 0.660924L11.2614 0.661356L14.068 6.35129L14.1843 6.58709L14.4445 6.62491L20.7214 7.53714C20.7216 7.53717 20.7218 7.53721 20.7221 7.53724C20.8861 7.56197 20.9919 7.71124 20.9684 7.86396L20.9683 7.86395L20.9675 7.86949C20.9587 7.93149 20.9294 7.98953 20.883 8.03519C20.8829 8.03533 20.8827 8.03547 20.8826 8.03562L16.341 12.4635L16.1527 12.647L16.1972 12.9061L17.2704 19.1598L17.2705 19.1602C17.2975 19.3171 17.1922 19.4675 17.0328 19.495L17.0321 19.4951C16.9688 19.5061 16.9038 19.4955 16.8507 19.4672L16.8485 19.466L11.2328 16.5135L11.0001 16.3912L10.7674 16.5135L5.15164 19.466L5.15087 19.4664C5.10294 19.4917 5.04887 19.5031 4.99481 19.4993C4.94074 19.4954 4.88884 19.4765 4.84498 19.4446L4.55116 19.8492Z" stroke="#404040"/>
</svg>
